<svg xmlns="http://www.w3.org/2000/svg" viewBox="0 0 667 290">
    <g fill="#FFFFFF" fill-rule="evenodd">
        <path d="M43.515 264.943V246.31h-20.48v18.633H18v-39.95h5.036v16.897h20.479v-16.898h5.036v39.951zM70.481 250.451c-7.498.28-9.904 2.406-9.904 6.211 0 3.357 2.238 4.868 5.484 4.868 5.036 0 8.84-2.742 8.84-8.56v-2.687l-4.42.168zm9.289-5.93v20.422h-3.581l-.952-4.253h-.223c-2.63 3.302-5.036 4.813-10.072 4.813-5.428 0-9.457-2.798-9.457-8.897 0-5.987 4.589-9.289 14.381-9.568l5.092-.168v-1.79c0-4.98-2.294-6.659-6.211-6.659-3.134 0-5.987 1.12-8.45 2.294l-1.51-3.693c2.63-1.399 6.323-2.574 10.239-2.574 7.274 0 10.744 3.078 10.744 10.072zM105.45 234.728l-.616 4.532c-.95-.223-2.239-.39-3.246-.39-4.644 0-8.728 4.027-8.728 10.07v16.003h-4.924v-29.99h4.028l.56 5.482h.224c1.902-3.302 4.98-6.043 9.176-6.043 1.12 0 2.518.111 3.525.336M109.924 264.943h4.924v-29.991h-4.924v29.991zm5.371-38.104c0 2.126-1.343 3.133-2.854 3.133-1.622 0-2.909-1.007-2.909-3.133 0-2.183 1.287-3.134 2.909-3.134 1.511 0 2.854.951 2.854 3.134zM160.615 264.943l-14.157-19.08-4.084 3.581v15.5h-5.036v-39.952h5.036v19.696c2.238-2.518 4.588-5.036 6.882-7.61l10.799-12.086h5.875l-15.835 17.401 16.45 22.55h-5.93zM173.706 246.982h15.275c-.056-5.092-2.294-8.562-7.274-8.562-4.7 0-7.498 3.19-8.001 8.562m20.423.951v2.965h-20.535c.168 6.771 3.58 10.408 9.568 10.408 2.91 0 5.876-.559 8.226-1.455l1.398 3.693c-3.077 1.343-5.763 1.96-9.848 1.96-8.561 0-14.436-5.317-14.436-15.333 0-9.848 5.316-15.779 13.26-15.779 7.667 0 12.367 5.371 12.367 13.541M212.479 260.747l1.343 3.524c-1.063.672-3.189 1.232-5.484 1.232-4.699 0-8.784-2.015-8.784-9.288v-26.299l4.924-1.847v6.883h8.673v3.805h-8.673v17.345c0 3.637 1.958 5.373 4.7 5.373 1.119 0 2.63-.392 3.301-.728M243.308 264.943h-4.029l-.727-3.973h-.224c-1.958 3.134-5.65 4.533-9.512 4.533-7.218 0-10.91-3.302-10.91-10.912v-19.639h4.98v19.303c0 4.813 2.125 7.163 6.657 7.163 6.66 0 8.841-3.86 8.841-10.855v-15.61h4.924v29.99zM254.216 223.705c1.51 0 2.854.951 2.854 3.134 0 2.126-1.343 3.133-2.854 3.133-1.623 0-2.91-1.007-2.91-3.133 0-2.183 1.287-3.134 2.91-3.134zm-6.435 50.583c3.19-1.455 3.917-3.581 3.917-8.897v-30.439h4.924v30.719c0 5.875-1.567 10.519-7.274 12.701l-1.567-4.084zM290.081 264.943h-4.029l-.727-3.973h-.224c-1.958 3.134-5.65 4.533-9.512 4.533-7.218 0-10.91-3.302-10.91-10.912v-19.639h4.98v19.303c0 4.813 2.125 7.163 6.657 7.163 6.66 0 8.841-3.86 8.841-10.855v-15.61h4.924v29.99zM303.395 234.896c0 1.454-.112 3.021-.28 4.196h.336c1.902-3.077 5.484-4.644 9.344-4.644 7.274 0 10.967 3.302 10.967 10.967v19.528h-4.868V245.75c0-4.81-2.126-7.217-6.714-7.217-6.715 0-8.785 3.917-8.785 10.911v15.5h-4.924v-40.68l4.924-1.847v12.48zM365.947 250.955v-.896c0-7.441-2.014-11.582-8.673-11.582-5.315 0-7.945 4.533-7.945 11.638 0 7.162 2.63 11.303 8 11.303 6.324 0 8.618-3.469 8.618-10.463m-21.71-.951c0-10.296 4.924-15.611 12.366-15.611 4.644 0 7.442 1.958 9.288 4.419h.336c-.112-.951-.336-3.3-.336-4.419V224.32l4.924-1.902v42.525h-3.972l-.728-4.028h-.224c-1.791 2.573-4.644 4.588-9.344 4.588-7.442 0-12.31-5.204-12.31-15.499M379.764 264.943h4.924v-29.991h-4.924v29.991zm5.372-38.104c0 2.126-1.343 3.133-2.854 3.133-1.622 0-2.909-1.007-2.909-3.133 0-2.183 1.287-3.134 2.909-3.134 1.511 0 2.854.951 2.854 3.134zM403.989 264.943l1.679-4.477h3.02v-31.054h-4.7v-4.42h14.438l-1.68 4.42h-3.021v31.054h4.7v4.477zM449.645 245.415v19.528h-4.868v-19.192c0-4.812-2.126-7.218-6.714-7.218-6.659 0-8.785 3.861-8.785 10.855v15.555h-4.924v-29.991h3.973l.727 4.085h.279c1.959-3.134 5.652-4.644 9.458-4.644 7.162 0 10.854 3.3 10.854 11.022M478.403 250.955v-.896c0-7.441-2.015-11.582-8.673-11.582-5.315 0-7.945 4.533-7.945 11.638 0 7.162 2.63 11.303 8 11.303 6.324 0 8.618-3.469 8.618-10.463m-21.71-.951c0-10.296 4.924-15.611 12.365-15.611 4.645 0 7.443 1.958 9.288 4.419h.336c-.111-.951-.336-3.3-.336-4.419V224.32l4.925-1.902v42.525h-3.972l-.728-4.028h-.225c-1.79 2.573-4.643 4.588-9.343 4.588-7.443 0-12.31-5.204-12.31-15.499M504.418 261.418c6.043 0 8.784-4.42 8.784-11.526 0-7.107-2.74-11.36-8.84-11.36-6.099 0-8.728 4.253-8.728 11.36 0 7.106 2.684 11.526 8.784 11.526m-.111 4.085c-7.947 0-13.766-5.651-13.766-15.611 0-9.904 5.315-15.5 13.933-15.5 8.113 0 13.82 5.596 13.82 15.5 0 9.96-5.427 15.61-13.988 15.61M550.242 245.415v19.528h-4.868v-19.192c0-4.812-2.126-7.218-6.714-7.218-6.66 0-8.785 3.861-8.785 10.855v15.555h-4.924v-29.991h3.973l.727 4.085h.279c1.959-3.134 5.652-4.644 9.458-4.644 7.162 0 10.854 3.3 10.854 11.022M561.933 246.982h15.275c-.055-5.092-2.294-8.562-7.273-8.562-4.7 0-7.498 3.19-8.002 8.562m20.424.951v2.965h-20.535c.168 6.771 3.581 10.408 9.567 10.408 2.91 0 5.876-.559 8.226-1.455l1.398 3.693c-3.077 1.343-5.763 1.96-9.848 1.96-8.56 0-14.435-5.317-14.435-15.333 0-9.848 5.315-15.779 13.261-15.779 7.666 0 12.366 5.371 12.366 13.541M596.399 265.503c-4.197 0-7.106-.672-9.4-1.902l1.454-3.805c1.959.839 5.204 1.734 8.057 1.734 4.98 0 7.107-1.734 7.107-4.421 0-2.237-1.511-3.581-7.386-5.818-5.82-2.238-9.29-4.03-9.29-8.953 0-5.092 4.533-7.945 11.248-7.945 3.637 0 6.77.783 9.568 2.014l-1.51 3.973c-2.575-1.12-5.484-1.96-8.394-1.96-4.028 0-6.211 1.4-6.211 3.639 0 2.517 1.959 3.524 7.722 5.707 5.708 2.126 9.009 4.085 9.009 8.896 0 5.82-4.645 8.84-11.974 8.84M614.358 264.943h4.924v-29.991h-4.924v29.991zm5.371-38.104c0 2.126-1.343 3.133-2.854 3.133-1.623 0-2.91-1.007-2.91-3.133 0-2.183 1.287-3.134 2.91-3.134 1.511 0 2.854.951 2.854 3.134zM640.487 250.451c-7.498.28-9.904 2.406-9.904 6.211 0 3.357 2.238 4.868 5.483 4.868 5.036 0 8.84-2.742 8.84-8.56v-2.687l-4.42.168zm9.288-5.93v20.422h-3.581l-.951-4.253h-.224c-2.63 3.302-5.036 4.813-10.072 4.813-5.428 0-9.456-2.798-9.456-8.897 0-5.987 4.588-9.289 14.38-9.568l5.092-.168v-1.79c0-4.98-2.294-6.659-6.211-6.659-3.133 0-5.987 1.12-8.45 2.294l-1.51-3.693c2.63-1.399 6.323-2.574 10.24-2.574 7.273 0 10.743 3.078 10.743 10.072z"/>
        <g>
            <path d="M93.337 183.849v19.584c-4.308 1.398-8.45 2.07-14.044 2.07-12.422 0-19.137-7.89-19.137-20.535 0-12.477 7.61-20.535 20.703-20.535 4.477 0 8.505.895 11.918 2.35l-1.678 4.42c-2.854-1.231-6.715-2.35-10.52-2.35-9.568 0-15.163 6.155-15.163 16.115 0 9.569 4.309 16.17 15.052 16.17 3.525 0 5.819-.447 7.833-.95v-11.862h-8.784l1.678-4.477h12.142zM104.637 186.982h15.275c-.056-5.092-2.294-8.562-7.274-8.562-4.7 0-7.498 3.19-8.001 8.562m20.423.951v2.965h-20.535c.168 6.771 3.58 10.408 9.568 10.408 2.91 0 5.876-.559 8.226-1.455l1.398 3.693c-3.077 1.343-5.763 1.96-9.848 1.96-8.561 0-14.436-5.317-14.436-15.333 0-9.848 5.316-15.779 13.26-15.779 7.667 0 12.367 5.371 12.367 13.541M149.061 174.728l-.615 4.532c-.95-.223-2.238-.39-3.245-.39-4.644 0-8.728 4.027-8.728 10.07v16.003h-4.924v-29.99h4.028l.56 5.482h.224c1.902-3.302 4.979-6.043 9.176-6.043 1.119 0 2.518.111 3.525.336M155.943 186.982h15.275c-.056-5.092-2.294-8.562-7.274-8.562-4.7 0-7.498 3.19-8.001 8.562m20.423.951v2.965H155.83c.168 6.771 3.58 10.408 9.568 10.408 2.91 0 5.876-.559 8.226-1.455l1.398 3.693c-3.077 1.343-5.763 1.96-9.848 1.96-8.561 0-14.436-5.317-14.436-15.333 0-9.848 5.316-15.779 13.26-15.779 7.667 0 12.367 5.371 12.367 13.541M185.372 163.705c1.511 0 2.854.951 2.854 3.134 0 2.126-1.343 3.133-2.854 3.133-1.623 0-2.91-1.007-2.91-3.133 0-2.183 1.287-3.134 2.91-3.134zm-6.435 50.583c3.19-1.455 3.917-3.581 3.917-8.897v-30.439h4.924v30.719c0 5.875-1.567 10.519-7.274 12.701l-1.567-4.084zM208.983 190.451c-7.498.28-9.904 2.406-9.904 6.211 0 3.357 2.238 4.868 5.484 4.868 5.036 0 8.84-2.742 8.84-8.56v-2.687l-4.42.168zm9.289-5.93v20.422h-3.581l-.952-4.253h-.223c-2.63 3.302-5.036 4.813-10.072 4.813-5.428 0-9.457-2.798-9.457-8.897 0-5.987 4.589-9.289 14.38-9.568l5.093-.168v-1.79c0-4.98-2.294-6.659-6.211-6.659-3.134 0-5.987 1.12-8.45 2.294l-1.51-3.693c2.63-1.399 6.323-2.574 10.239-2.574 7.274 0 10.744 3.078 10.744 10.072zM245.013 169.916h-.224c.224 2.294.392 6.547.392 10.799v24.228h-4.644v-39.951h7.442l12.309 32.734h.225l12.533-32.734h7.386v39.95h-4.98V180.38c0-3.861.224-8.002.392-10.408h-.224l-13.317 34.97h-4.141l-13.15-35.026zM302.306 190.451c-7.498.28-9.904 2.406-9.904 6.211 0 3.357 2.238 4.868 5.484 4.868 5.035 0 8.84-2.742 8.84-8.56v-2.687l-4.42.168zm9.288-5.93v20.422h-3.58l-.952-4.253h-.224c-2.63 3.302-5.036 4.813-10.072 4.813-5.427 0-9.456-2.798-9.456-8.897 0-5.987 4.588-9.289 14.38-9.568l5.092-.168v-1.79c0-4.98-2.294-6.659-6.21-6.659-3.134 0-5.988 1.12-8.45 2.294l-1.51-3.693c2.63-1.399 6.322-2.574 10.24-2.574 7.273 0 10.742 3.078 10.742 10.072zM327.315 205.503c-4.197 0-7.106-.672-9.4-1.902l1.453-3.805c1.96.839 5.204 1.734 8.058 1.734 4.98 0 7.107-1.734 7.107-4.421 0-2.237-1.512-3.581-7.387-5.818-5.819-2.238-9.288-4.03-9.288-8.953 0-5.092 4.532-7.945 11.248-7.945 3.635 0 6.77.783 9.567 2.014l-1.51 3.973c-2.575-1.12-5.485-1.96-8.394-1.96-4.029 0-6.21 1.4-6.21 3.639 0 2.517 1.957 3.524 7.72 5.707 5.709 2.126 9.01 4.085 9.01 8.896 0 5.82-4.644 8.84-11.974 8.84M348.798 186.982h15.275c-.056-5.092-2.294-8.562-7.274-8.562-4.7 0-7.498 3.19-8 8.562m20.422.951v2.965h-20.535c.168 6.771 3.581 10.408 9.568 10.408 2.91 0 5.876-.559 8.226-1.455l1.398 3.693c-3.077 1.343-5.763 1.96-9.848 1.96-8.56 0-14.436-5.317-14.436-15.333 0-9.848 5.316-15.779 13.261-15.779 7.666 0 12.366 5.371 12.366 13.541M380.634 174.896c0 1.454-.112 3.021-.28 4.196h.336c1.902-3.077 5.484-4.644 9.344-4.644 7.274 0 10.967 3.302 10.967 10.967v19.528h-4.868V185.75c0-4.81-2.126-7.217-6.714-7.217-6.715 0-8.785 3.917-8.785 10.911v15.5h-4.924v-40.68l4.924-1.847v12.48zM409.167 204.943h4.924v-29.991h-4.924v29.991zm5.372-38.104c0 2.126-1.343 3.133-2.854 3.133-1.623 0-2.91-1.007-2.91-3.133 0-2.183 1.287-3.134 2.91-3.134 1.511 0 2.854.951 2.854 3.134zM450.85 176.016c-.336-.896-1.512-4.59-1.903-5.987-.56 2.294-1.287 4.7-1.735 5.987l-4.532 12.086h12.646l-4.477-12.086zm5.986 16.562h-15.835l-4.756 12.366h-5.09l15.61-40.12h4.532l15.555 40.12h-5.203l-4.813-12.366zM491.133 190.955v-.896c0-7.441-2.015-11.582-8.673-11.582-5.315 0-7.945 4.533-7.945 11.638 0 7.162 2.63 11.303 8.001 11.303 6.323 0 8.617-3.469 8.617-10.463m-21.71-.951c0-10.296 4.924-15.611 12.365-15.611 4.645 0 7.443 1.958 9.288 4.419h.336c-.11-.951-.336-3.3-.336-4.419V164.32l4.925-1.902v42.525h-3.972l-.728-4.028h-.225c-1.79 2.573-4.643 4.588-9.343 4.588-7.443 0-12.31-5.204-12.31-15.499M500.195 174.952h5.26l6.379 17.682c.894 2.462 2.07 6.098 2.405 7.945h.224c.392-1.847 1.678-5.54 2.518-7.945l6.379-17.682h5.26l-11.415 29.991h-5.652l-11.358-29.99zM535.779 186.982h15.275c-.055-5.092-2.294-8.562-7.273-8.562-4.7 0-7.498 3.19-8.002 8.562m20.424.951v2.965h-20.535c.168 6.771 3.58 10.408 9.567 10.408 2.91 0 5.876-.559 8.226-1.455l1.398 3.693c-3.077 1.343-5.763 1.96-9.848 1.96-8.56 0-14.435-5.317-14.435-15.333 0-9.848 5.315-15.779 13.26-15.779 7.667 0 12.367 5.371 12.367 13.541M587.982 185.415v19.528h-4.868v-19.192c0-4.812-2.126-7.218-6.715-7.218-6.658 0-8.784 3.861-8.784 10.855v15.555h-4.924v-29.991h3.973l.726 4.085h.28c1.958-3.134 5.652-4.644 9.457-4.644 7.162 0 10.855 3.3 10.855 11.022M608.01 200.747l1.343 3.524c-1.064.672-3.19 1.232-5.484 1.232-4.7 0-8.785-2.015-8.785-9.288v-26.299l4.925-1.847v6.883h8.673v3.805h-8.673v17.345c0 3.637 1.958 5.373 4.7 5.373 1.118 0 2.63-.392 3.301-.728"/>
        </g>
        <path d="M402.69 125.672h1.119l1.287 3.47 1.286-3.47h1.12v4.42h-.784v-3.413h-.055l-1.232 3.414h-.671l-1.231-3.414h-.056V130.093h-.783v-4.421zm-2.574.672h-1.287v-.672h3.413v.672h-1.343v3.749h-.783v-3.75zm-63.751 9.954c0 .54.62.543.732 0 .824-3.997 2.076-6.662 4.033-9.25l-4.401.004a.363.363 0 0 0-.364.363v8.883zm32.32-55.485c-.181-.584-.686-.623-.682-.011.05 5.779-1.612 10.745-12.16 21.294l-8.343 8.337c-3.798 3.797-7.212 7.263-9.23 10.729h8.24l.974-.975 11.97-11.983c9.969-9.97 11.36-20.513 9.23-27.391zm-11.186 35.25l-10 10.006c-6.052 6.053-11.134 11.268-11.134 16.97l.006 1.589c0 .43.536.499.7.048 1.87-5.106 8.113-10.556 19.565-8.624 0 0 49.89 8.62 50.31 8.658.487.043.728-.437.414-.81-.19-.225-23.22-23.255-23.22-23.255l-26.641-4.582zm-36.094 10.986a.364.364 0 0 1-.363-.364v-5.162c0-.202.163-.364.363-.364l8.733.002c.2 0 .364-.163.364-.364-.024-4.637-3.52-7.787-17.524-5.35l-30.24 5.198s-23.031 23.03-23.22 23.255c-.314.373-.074.853.414.81.419-.037 50.31-8.658 50.31-8.658 11.452-1.932 17.695 3.518 19.564 8.624.165.45.7.383.7-.048l.002-17.216c0-.2-.162-.363-.363-.363h-8.74zm-13.94-72.152c-9.967 9.968-11.358 20.514-9.23 27.392.182.584.687.623.683.01-.05-5.778 1.612-10.744 12.16-21.293l22.74-22.733c6.053-6.053 11.135-11.268 11.135-16.971v-8.896c0-.541-.62-.543-.732 0-1.496 7.26-4.4 10.124-10.388 16.112l-26.367 26.379zm37.509-17.973v-8.956c0-.541-.62-.543-.732 0-1.496 7.26-4.392 10.169-10.38 16.157l-23.883 23.862c-11.59 11.59-13.596 22.808-7.701 30.016.393.482.816.193.56-.387-3.898-8.818 5.448-18.168 9.898-22.617l21.104-21.104c6.053-6.053 11.134-11.268 11.134-16.971zm-34.34 46.045c-11.59 11.59-6.261 22.785.5 25.867.593.27.829-.211.375-.603-5.421-4.698-3.775-12.598 3.043-19.415l19.264-19.265c6.052-6.052 11.134-11.267 11.134-16.97v-8.895c0-.541-.62-.543-.732 0-1.496 7.258-4.393 10.11-10.381 16.098l-23.203 23.183zm25.71 28.81v8.957c0 .54.62.543.732 0 1.496-7.258 4.392-10.168 10.38-16.156l9.486-9.467c11.59-11.59 13.596-22.806 7.7-30.015-.392-.481-.815-.193-.558.387 3.897 8.818-5.45 18.167-9.9 22.618l-6.706 6.708c-6.053 6.05-11.134 11.266-11.134 16.969zm11.137-22.861c-5.988 5.987-8.885 8.84-10.381 16.099-.112.544-.732.542-.732 0v-8.895c0-5.703 5.082-10.918 11.134-16.971l4.867-4.867c6.818-6.818 8.465-14.717 3.043-19.415-.453-.392-.218-.874.375-.603 6.76 3.08 12.09 14.275.5 25.867l-8.806 8.785z"/>
    </g>
</svg>
